<?xml version="1.0" encoding="utf-8"?>
<!-- Generator: Adobe Illustrator 22.0.1, SVG Export Plug-In . SVG Version: 6.00 Build 0)  -->
<svg version="1.1" id="Layer_1" xmlns="http://www.w3.org/2000/svg" xmlns:xlink="http://www.w3.org/1999/xlink" x="0px" y="0px"
	 viewBox="0 0 723 312" style="enable-background:new 0 0 723 312;" xml:space="preserve">
<style type="text/css">
	.st0{fill:#D2A460;}
	.st1{fill:#E8E0FF;}
	.st2{fill:url(#SVGID_1_);}
	.st3{opacity:8.000000e-02;fill:url(#);}
	.st4{fill:url(#SVGID_2_);}
	.st5{opacity:6.000000e-02;}
	.st6{fill:#787878;}
	.st7{fill:#FFFFFF;}
	.st8{fill:#FFF2E0;}
	.st9{fill:#B49AFF;}
	.st10{fill:#280078;}
	.st11{fill:#0078A0;}
	.st12{fill:#00A0B4;}
</style>
<g>
	<g>
		<path class="st0" d="M447.9,109.8c-1.8,0-16.2,9-16.2,10.8c0,1.8,1.8,3.6,1.8,3.6s1.8,0,3.6,0c1.8,0,3.6,1.8,3.6,3.6v92.9
			c-5.9,3.4-11.2,6.1-12.6,6.1c-1.8,0-9-5.4-9-7.2v-91.8c0-1.8,3.6-3.6,3.6-5.4c0-1.8-16.2-12.6-18-12.6c-1.8,0-16.2,9-16.2,10.8
			c0,1.8,1.8,3.6,1.8,3.6s1.8,0,3.6,0c1.8,0,3.6,1.8,3.6,3.6v93.5c-5.2,2.5-11.6,5.5-12.6,5.5c-1.8,0-9-5.4-9-7.2v-99l0,0
			c0,0,0-0.1,0-0.1v-0.1l0,0c-0.1-21.5-18-35.8-28.8-35.8c-7.2,0-12.6,3.6-12.6,10.8c0,10.8,12.6,7.2,9,1.8c-3.6-5.4-5.4-9,0-9
			c5.4,0,10.8,9,10.8,32.2v101c0,1.8-3.6,3.6-3.6,5.4c0,1.8,21.6,16.2,23.4,16.2c1.1,0,13.1-7.5,22.2-13.7
			c5.7,4.6,19.6,13.7,21,13.7c1.8,0,45-28.8,45-30.6l0,0v-84.6c0-1.8,3.6-3.6,3.6-5.4C465.9,120.6,449.7,109.8,447.9,109.8z"/>
		<path class="st0" d="M95.1,212.4c-1.8,0-3.6-1.8-3.6-3.6v-39c0-7.7-2.3-15.5-6.7-21.8c-4-5.9-9.6-10.5-15-15c-3-2.6-6.1-5.2-8.9-8
			V88.2l3.6-3.6l-5.4-5.4l-5.4,5.4l3.6,3.6v7.2h-9v-27c0-1.8,1.8-3.6,3.6-3.6c5.4,0,19.8,25.2,21.6,25.2c1.8,0,18-9,18-9
			c0-3.6-19.8-36-27-36c-3.6,0-46.8,28.8-46.8,30.6c0,1.8,1.8,3.6,1.8,3.6s1.8,0,3.6,0c1.8,0,3.6,1.8,3.6,3.6v25.8
			c0.1,7.8,2.2,15.3,6.6,21.7c4,5.9,9.6,10.5,15,15.1c3.1,2.6,6.1,5.2,9,8v48.3l0,0l-3.6,3.6l5.4,5.4l5.4-5.4l-3.6-3.6l0,0v-9h9
			v30.6c0,1.8-1.8,3.6-3.6,3.6c-5.4,0-21.5-25.1-25.2-30.6c-3.7-5.5-18.9-19.8-39.6-7.2c10.8,0.8,18,10.8,21.6,16.2
			c3.6,5.4,23.4,41.4,30.6,41.4c3.6,0,46.8-28.8,46.8-30.6c0-1.8-1.8-3.6-1.8-3.6S96.9,212.4,95.1,212.4z M57.3,121.1
			c-0.8-0.9-1.5-1.8-2.1-2.7c-2-2.7-3.5-5.6-4.6-8.6h6.7V121.1z M57.3,106.2h-7.9c-0.6-2.4-1-4.8-1.1-7.2h9V106.2z M60.9,157.2
			c0.7,0.8,1.4,1.7,2.1,2.6c4,5.4,6.1,11.8,6.7,18.4h-8.8V157.2z M69.9,189h-9v-7.2h9V189z"/>
		<path class="st0" d="M323.7,111.6c-0.9,0-9.8,5.4-18,10.9c-4.9-3.8-13.2-9.1-14.4-9.1c-1.8,0-16.2,9-16.2,10.8
			c0,1.8,1.8,3.6,1.8,3.6s1.8,0,3.6,0c1.8,0,3.6,1.8,3.6,3.6V225l0,0c0,1.8-3.6,3.6-3.6,5.4c0,1.8,21.6,16.2,23.4,16.2
			c1.8,0,32.4-19.8,32.4-21.6c0-1.8-1.8-3.6-1.8-3.6s-18,9-19.8,9c-1.8,0-9-5.4-9-7.2l0,0v-91.8l0,0c0-1,1.2-2.1,2.2-3.1
			c2.5-1.3,4.5-2.3,5-2.3c1.8,0,12.6,12.6,14.4,12.6c1.8,0,19.8-10.8,19.8-12.6C347.1,124.2,325.5,111.6,323.7,111.6z"/>
		<path class="st0" d="M608.1,109.8c-3.6,0-43.2,25.2-43.2,28.8v82.8l0,0c0,1.8-3.6,3.6-3.6,5.4c0,3.6,27,19.8,30.6,19.8
			c3.6,0,43.2-25.2,43.2-28.8c0,0,0,0,0,0V135c0,0,0,0,0,0c0-1.8,3.6-3.6,3.6-5.4C638.7,126,611.7,109.8,608.1,109.8z M613.5,135
			v90.1c-5.5,2.9-10.1,5.3-10.8,5.3c-1.8,0-16.1-7.2-16.2-9v-90.1c5.5-2.9,10.1-5.3,10.8-5.3C599.1,126,613.5,133.2,613.5,135
			L613.5,135z"/>
		<path class="st0" d="M523.5,109.8c-3.6,0-43.2,25.2-43.2,28.8v82.8l0,0c0,1.8-3.6,3.6-3.6,5.4c0,3.6,27,19.8,30.6,19.8
			c3.6,0,43.2-25.2,43.2-28.8c0,0,0,0,0,0V135l0,0c0-1.8,3.6-3.6,3.6-5.4C554.1,126,527.1,109.8,523.5,109.8z M528.9,135v90.1
			c-5.5,2.9-10.1,5.3-10.8,5.3c-1.8,0-16.1-7.2-16.2-9v-90.1c5.5-2.9,10.1-5.3,10.8-5.3C514.5,126,528.9,133.2,528.9,135L528.9,135z
			"/>
		<path class="st0" d="M240.9,109.8c-3.6,0-46.8,28.8-46.8,30.6c0,1.8,1.8,3.6,1.8,3.6s1.8,0,3.6,0c1.8,0,3.6,1.8,3.6,3.6v73.8l0,0
			c0,1.8-3.6,3.6-3.6,5.4c0,3.6,27,19.8,30.6,19.8c3.6,0,32.4-21.6,37.8-25.2c1.5-1-3.6-5.4-3.6-5.4s-21.6,14.4-23.4,14.4
			c-1.8,0-16.2-7.2-16.2-9v-88.2c0-1.8,1.8-3.6,3.6-3.6c5.4,0,21.6,25.2,21.6,30.6c0,5.4-10.8,10.8-16.2,14.4
			c-5.4,3.6-7.2,7.2-7.2,14.4c0,7.2,3.6,12.6,10.8,12.6c10.8,0,7.2-12.6,1.8-9c-5.4,3.6-9,5.4-9,0c0-5.4,3.6-9,9-12.6
			c5.4-3.6,34.2-14.4,34.2-21.6C273.3,151.2,248.1,109.8,240.9,109.8z"/>
		<path class="st0" d="M721.5,120.6c0-7.2-0.2-20.4-1.8-27c-1.7-7-25.2-48.6-32.4-48.6c-3.6,0-46.8,28.8-46.8,30.6
			c0,1.8,1.8,5.4,3.6,5.4c1.8,0,25.2-16.2,30.6-16.2s21.6,26.7,23.4,33.9c0.4,1.5,0.7,3.2,0.9,5c-11.7,6.1-54.9,35.1-54.9,36.7
			c0,1.8,1.8,3.6,1.8,3.6s1.8,0,3.6,0c1.8,0,3.6,1.8,3.6,3.6v73.8l0,0c0,1.8-3.6,3.6-3.6,5.4c0,1.8,27,19.8,28.8,19.8
			c1.8,0,42.1-26.3,43.2-28.7l0,0V120.6L721.5,120.6z M699.9,225.1c-5.5,2.9-10.1,5.3-10.8,5.3c-1.8,0-14.4-9-14.4-10.8V135l0,0
			c0-3.6,19.5-17.8,25.1-21.5c0.1,2.8,0.1,5.4,0.1,7.5V225.1z"/>
		<path class="st0" d="M161.7,109.8c-1.5,0-22.1,13.2-29.7,19V84.6l0,0c0-14.4,0-23.4,9-28.8c-9,0-14.4,5.4-18,12.6
			c-3.6-10.8-9-19.8-21.6-23.4c9,10.8,9,27,9,39.6h0V225h0c0,1.8-3.6,3.6-3.6,5.4c0,1.8,16.2,12.6,18,12.6c1.8,0,16.2-9,16.2-10.8
			c0-1.8-1.8-3.6-1.8-3.6s-1.8,0-3.6,0c-1.8,0-3.6-1.8-3.6-3.6v-90.5c3.7-2.2,17.3-10.2,18.9-10.2c1.8,0,9,5.4,9,7.2V225
			c0,23.4-5.4,32.4-10.8,32.4c-5.4,0-3.6-3.6,0-9c3.6-5.4-9-9-9,1.8c0,7.2,5.4,10.8,12.6,10.8c10.8,0,28.8-14.4,28.8-36v-95.4
			c0-1.8,3.6-3.6,3.6-5.4C185.1,122.4,163.5,109.8,161.7,109.8z"/>
	</g>
</g>
</svg>
