<?xml version="1.0" encoding="utf-8"?>
<!-- Generator: Adobe Illustrator 22.0.1, SVG Export Plug-In . SVG Version: 6.00 Build 0)  -->
<svg version="1.1" id="Layer_1" xmlns="http://www.w3.org/2000/svg" xmlns:xlink="http://www.w3.org/1999/xlink" x="0px" y="0px"
	 viewBox="0 0 723 312" style="enable-background:new 0 0 723 312;" xml:space="preserve">
<style type="text/css">
	.st0{fill:#D2A460;}
	.st1{fill:url(#SVGID_1_);}
	.st2{fill:url(#);}
	.st3{fill:#787878;}
</style>
<path class="st0" d="M624,293.4c-11.1,0-17.7-4.4-24.4-13.3c-2.3,11.1-16.9,30.8-31,30.8c-8.9,0-15.5-4.4-15.5-13.3
	c0-13.3,15.5-8.9,11.1-2.2c-4.5,6.6-6.6,11.2,0,11.1c8.4-0.2,19.9-12.3,19.9-44.1v-28.3c-12.2,7.9-24.5,15-26.6,15
	c-4.5,0-37.7-20-37.7-24.4c0-2.2,4.4-4.4,4.4-6.6V107.2c0-2.2-2.2-4.4-4.4-4.4h-4.4c0,0-2.2-2.2-2.2-4.4c0-2.2,17.7-13.3,19.9-13.3
	c2.2,0,22.2,13.3,22.2,15.5c0,2.2-4.5,4.4-4.5,6.7v110.8c0,2.2,17.7,11,20,11c0.9,0,6.6-2.9,13.3-6.5V107.3c0-2.2-2.2-4.5-4.5-4.5
	h-4.4c0,0-2.2-2.2-2.2-4.4c0-2.2,17.7-13.3,19.9-13.3c2.2,0,22.1,13.3,22.1,15.5c0,2.2-4.4,4.4-4.4,6.7v106.3v0v0v48.7
	C610.7,280.1,612.9,286.7,624,293.4 M694.9,222.6c-6.7,3.6-12.4,6.5-13.3,6.5c-2.2,0-17.7-11-17.7-13.3V111.7
	c0-4.4,24-21.9,30.9-26.5c0.2,3.5,0.2,6.7,0.2,9.3V222.6z M721.5,94c0-8.8-0.2-25.1-2.2-33.3c-2.1-8.6-31-59.8-39.9-59.8
	c-4.4,0-57.6,35.4-57.6,37.7c0,2.2,2.2,6.6,4.4,6.6c2.2,0,31-19.9,37.7-19.9c6.7,0,26.6,32.9,28.8,41.8c0.5,1.9,0.9,4,1.1,6.1
	c-14.4,7.5-67.6,43.2-67.6,45.2c0,2.2,2.2,4.4,2.2,4.4h4.4c2.2,0,4.4,2.2,4.4,4.4v90.8c0,2.2-4.4,4.4-4.4,6.6
	c0,2.2,33.2,24.4,35.5,24.4c2.2,0,51.8-32.4,53.1-35.3l0,0V94z M471.1,222.6c-6.7,3.6-12.4,6.5-13.3,6.5c-2.2,0-19.9-8.8-19.9-11
	v-85.5c5.6-3.4,20.4-12,22.1-12c2.2,0,11.1,6.6,11.1,8.9V222.6z M502.2,120.6c0-2.2-26.6-17.7-28.8-17.7c-1.7,0-25.4,15.1-35.4,22.6
	V29.7c0-2.2,2.2-4.4,4.4-4.4c6.6,0,20,26.6,20,33.2c0,6.6-6.7,11.1-13.3,15.5c-5.2,3.5-8.9,9.5-8.9,17.7c0,8.9,4.5,15.5,13.3,15.5
	c13.3,0,8.9-15.5,2.2-11.1c-6.7,4.4-11.1,6.6-11.1,0c0-6.6,4.4-11.1,11.1-15.5c6.7-4.4,35.4-15.5,35.4-24.4
	c0-8.8-24.4-55.4-33.2-55.4c-4.4,0-57.6,35.4-57.6,37.7c0,2.2,2.2,4.4,2.2,4.4h4.4c2.2,0,4.4,2.2,4.4,4.4v170.6
	c0,2.2-4.4,4.4-4.4,6.6c0,4.4,33.2,24.4,37.7,24.4c4.4,0,53.2-31,53.2-35.4v0v-86.4C497.7,125,502.2,122.8,502.2,120.6 M324.9,208.8
	v-98.4c5.6-3.4,20.4-12,22.1-12c2.2,0,11.1,6.6,11.1,8.9v119.2c-2.7,1.3-4.7,2.2-5.2,2.2C347.5,228.7,341.8,217,324.9,208.8
	 M112.3,182.6h19.9v13.3h-19.9V182.6z M52.4,182.6h19.9v13.3H52.4V182.6z M360.4,80.7c-1.5,0-19.9,11.6-31.2,19.5
	c-1.8-3.1-19.9-15.1-22-15.1c-2.2,0-19.9,11.1-19.9,13.3c0,2.2,2.2,4.4,2.2,4.4h4.5c2.2,0,4.4,2.2,4.4,4.4V203
	c-26.8,2.5-57.9,26.1-59.8,26.1c-2.2,0-19.9-8.8-19.9-11V109.5c0-2.2,2.2-4.4,4.4-4.4c6.6,0,26.6,31,26.6,37.7
	c0,6.6-13.3,13.3-20,17.7c-6.6,4.4-8.9,8.9-8.9,17.7c0,8.9,4.4,15.5,13.3,15.5c13.3,0,8.9-15.5,2.2-11.1c-6.6,4.4-11.1,6.7-11.1,0
	c0-6.7,4.4-11.1,11.1-15.5c6.7-4.4,42.1-17.7,42.1-26.6c0-8.8-31-59.8-39.9-59.8c-4.4,0-57.6,35.5-57.6,37.7c0,2.2,2.2,4.4,2.2,4.4
	h4.4c2.2,0,4.4,2.2,4.4,4.4v90.8h0c0,0.4-0.1,0.9-0.5,1.3c-6,2.9-20,9.7-21.7,9.7c-2.2,0-11-6.6-11-8.8V23.1c0-2.2,4.4-4.4,4.4-6.6
	c0-2.2-20-15.5-22.2-15.5c-2.2,0-19.9,11.1-19.9,13.3c0,2.2,2.2,4.4,2.2,4.4h4.4c2.2,0,4.5,2.2,4.5,4.4v155.1h-20V54.1l4.4-4.4
	l-6.6-6.6l-6.6,6.6l4.4,4.4v168.4h4.4v-22.2h20v18.8c-5.7,2.8-20.4,10-22.2,10c-2.2,0-11.1-6.6-11.1-8.8V23.1c0-2.2,4.4-4.4,4.4-6.6
	c0-2.2-20-15.5-22.2-15.5c-2.2,0-20,11.1-20,13.3c0,2.2,2.2,4.4,2.2,4.4h4.4c2.2,0,4.4,2.2,4.4,4.4v155.1H52.4V54.1l4.4-4.4L50.2,43
	l-6.6,6.6l4.4,4.4v168.4h4.4v-22.2h19.9v18.8c-5.7,2.8-20.4,10-22.1,10c-2.2,0-11.1-6.6-11.1-8.8V23.1c0-2.2,4.4-4.4,4.4-6.6
	c0-2.2-19.9-15.5-22.2-15.5C19.2,0.9,1.5,12,1.5,14.2c0,2.2,2.2,4.4,2.2,4.4h4.4c2.2,0,4.4,2.2,4.4,4.4v199.4c0,2.2-4.4,4.4-4.4,6.6
	c0,2.2,26.6,20,28.8,20c1.5,0,19.9-11.6,31.2-19.5c2.3,3.4,26.5,19.5,28.6,19.5c1.5,0,19.9-11.6,31.2-19.5
	c2.3,3.4,26.5,19.5,28.6,19.5c1.6,0,22.6-13.3,33.4-21.1c7.7,7.2,31.6,21.1,35.3,21.1c4.4,0,43.6-39.1,67.9-31.4
	c1.8,0.6,3.5,1.2,5.2,1.9v42.8c0,17.7,0,28.8-11.1,35.5c11.1,0,17.7-6.7,22.1-15.5c4.4,13.3,11.1,24.4,26.6,28.8
	c-11.1-13.3-11.1-33.2-11.1-48.7v-25c6.9,6.4,11.2,11.7,13.3,11.7c8.8,0,46.5-28.8,46.5-31v-113c0-2.2,4.5-4.4,4.5-6.6
	C389.2,96.2,362.6,80.7,360.4,80.7"/>
</svg>
